<svg version="1.1" viewBox="0.0 0.0 44.0 44.0" fill="none" stroke="none" stroke-linecap="square" stroke-miterlimit="10" xmlns:xlink="http://www.w3.org/1999/xlink" xmlns="http://www.w3.org/2000/svg"><clipPath id="p.0"><path d="m0 0l44.0 0l0 44.0l-44.0 0l0 -44.0z" clip-rule="nonzero"/></clipPath><g clip-path="url(#p.0)"><path fill="#000000" fill-opacity="0.0" d="m0 0l44.0 0l0 44.0l-44.0 0z" fill-rule="evenodd"/><path fill="#000000" fill-opacity="0.0" d="m1.3648294 21.996063l0 0c0 -4.7487793 3.849646 -8.598426 8.598426 -8.598426l0 0c2.2804441 0 4.4674873 0.90590286 6.0800037 2.5184212c1.6125183 1.6125174 2.5184212 3.7995596 2.5184212 6.0800047l0 0c0 4.7487793 -3.8496466 8.598425 -8.598425 8.598425l0 0c-4.7487793 0 -8.598426 -3.8496456 -8.598426 -8.598425z" fill-rule="evenodd"/><path stroke="#6c757d" stroke-width="3.0" stroke-linejoin="round" stroke-linecap="butt" d="m1.3648294 21.996063l0 0c0 -4.7487793 3.849646 -8.598426 8.598426 -8.598426l0 0c2.2804441 0 4.4674873 0.90590286 6.0800037 2.5184212c1.6125183 1.6125174 2.5184212 3.7995596 2.5184212 6.0800047l0 0c0 4.7487793 -3.8496466 8.598425 -8.598425 8.598425l0 0c-4.7487793 0 -8.598426 -3.8496456 -8.598426 -8.598425z" fill-rule="evenodd"/><path fill="#000000" fill-opacity="0.0" d="m25.438568 21.996063l0 0c0 -4.7487793 3.8496475 -8.598426 8.598427 -8.598426l0 0c2.2804413 0 4.4674873 0.90590286 6.0800056 2.5184212c1.6125145 1.6125174 2.5184174 3.7995596 2.5184174 6.0800047l0 0c0 4.7487793 -3.8496437 8.598425 -8.598423 8.598425l0 0c-4.7487793 0 -8.598427 -3.8496456 -8.598427 -8.598425z" fill-rule="evenodd"/><path stroke="#6c757d" stroke-width="3.0" stroke-linejoin="round" stroke-linecap="butt" d="m25.438568 21.996063l0 0c0 -4.7487793 3.8496475 -8.598426 8.598427 -8.598426l0 0c2.2804413 0 4.4674873 0.90590286 6.0800056 2.5184212c1.6125145 1.6125174 2.5184174 3.7995596 2.5184174 6.0800047l0 0c0 4.7487793 -3.8496437 8.598425 -8.598423 8.598425l0 0c-4.7487793 0 -8.598427 -3.8496456 -8.598427 -8.598425z" fill-rule="evenodd"/><path fill="#000000" fill-opacity="0.0" d="m9.963255 30.594488l24.06299 0" fill-rule="evenodd"/><path stroke="#6c757d" stroke-width="3.0" stroke-linejoin="round" stroke-linecap="butt" d="m9.963255 30.594488l24.06299 0" fill-rule="evenodd"/></g></svg>